<?xml version="1.0" standalone="no"?>
<!DOCTYPE svg PUBLIC "-//W3C//DTD SVG 20010904//EN"
 "http://www.w3.org/TR/2001/REC-SVG-20010904/DTD/svg10.dtd">
<svg version="1.0" xmlns="http://www.w3.org/2000/svg"
 width="8334.000000pt" height="8334.000000pt" viewBox="0 0 8334.000000 8334.000000"
 preserveAspectRatio="xMidYMid meet">

<g transform="translate(0.000000,8334.000000) scale(0.100000,-0.100000)"
fill="#000000" stroke="none">
<path d="M40594 56767 c-3596 -5221 -8228 -11944 -10293 -14942 -2064 -2997
-3863 -5607 -3996 -5800 -137 -200 -247 -350 -256 -349 -8 1 -2414 1652 -5348
3669 -4410 3033 -5335 3665 -5346 3654 -33 -37 -3937 -6673 -3927 -6677 19 -6
14 -20 -39 -109 -28 -46 -49 -86 -48 -88 12 -10 16912 -8455 16915 -8452 5 4
-218 -440 11037 22004 l8125 16202 -114 173 c-71 106 -126 180 -144 190 l-28
16 -6538 -9491z"/>
<path d="M70683 61453 l-133 -4 0 -25 c0 -34 88 -1523 94 -1592 3 -36 1 -54
-7 -56 -7 -2 -104 -9 -217 -15 -346 -20 -803 -71 -1120 -127 -139 -24 -950
-198 -1075 -230 -309 -80 -503 -260 -580 -539 -25 -92 -31 -302 -11 -422 8
-54 34 -244 56 -423 40 -322 53 -389 92 -505 49 -142 145 -296 231 -371 34
-29 157 -101 157 -92 0 2 -13 35 -29 73 -48 121 -70 230 -111 565 -22 179 -48
370 -57 424 -20 128 -13 309 17 414 75 265 228 419 508 511 104 35 991 229
1212 265 308 51 830 106 1143 122 l138 7 -6 71 c-7 89 -115 1900 -115 1932 0
20 -5 24 -27 22 -16 -1 -88 -4 -160 -5z"/>
<path d="M71462 57220 c-67 -15 -125 -29 -128 -32 -3 -3 67 -390 155 -859 89
-469 157 -856 153 -860 -4 -3 -1510 -334 -3347 -734 -1837 -400 -3344 -731
-3349 -736 -7 -6 57 -387 67 -395 3 -2 6971 1517 6975 1522 5 4 -390 2108
-397 2115 -3 3 -61 -6 -129 -21z"/>
<path d="M69783 53018 l-153 -30 -4 -32 c-3 -17 -154 -4839 -336 -10716 -182
-5877 -334 -10751 -337 -10832 l-6 -148 -2077 0 -2077 0 -6 -127 c-4 -71 -7
-147 -7 -170 l0 -43 2254 0 2254 0 6 153 c4 83 157 4992 341 10907 184 5915
337 10826 341 10913 l6 157 -23 -1 c-13 -1 -93 -15 -176 -31z"/>
<path d="M27113 47931 c-56 -9 -104 -19 -107 -22 -4 -3 55 -318 129 -699 75
-381 135 -693 133 -694 -2 -2 -91 -20 -198 -41 -238 -46 -721 -166 -925 -230
-244 -76 -973 -344 -1066 -391 -181 -93 -290 -221 -341 -399 -32 -115 -31
-294 4 -420 14 -49 64 -236 111 -414 114 -424 169 -544 319 -687 51 -50 168
-126 168 -111 0 3 -14 34 -30 71 -17 37 -70 212 -117 389 -47 177 -97 363
-111 412 -19 72 -24 114 -24 210 -1 207 51 344 177 471 77 77 156 128 280 179
134 55 820 300 980 350 209 65 607 165 880 220 127 26 232 49 233 50 2 2 -74
402 -170 889 l-173 886 -25 -1 c-14 -1 -71 -9 -127 -18z"/>
<path d="M28308 44271 c-54 -20 -98 -38 -98 -41 0 -3 105 -323 233 -711 l233
-706 -2899 -1054 c-1594 -579 -2900 -1056 -2902 -1060 -6 -9 128 -409 137
-409 9 0 5980 2170 5994 2178 7 5 -92 318 -291 920 -167 502 -304 914 -306
916 -2 1 -48 -14 -101 -33z"/>
<path d="M40478 43734 l-188 -233 -200 -3898 c-110 -2144 -200 -3908 -200
-3920 0 -23 0 -23 180 -23 l180 0 0 31 c0 17 95 1872 210 4122 116 2251 209
4106 208 4123 -3 29 -16 15 -190 -202z"/>
<path d="M60428 43658 c450 -558 763 -1237 936 -2033 124 -567 206 -1251 236
-1955 27 -642 -3 -2353 -65 -3770 -38 -844 -160 -2924 -205 -3495 -32 -404
-107 -1077 -125 -1132 -4 -10 -2163 -13 -10754 -13 l-10749 0 -6 -82 c-12
-156 -47 -773 -56 -1003 -12 -282 -24 -417 -56 -603 -112 -668 -422 -1352
-902 -1991 -545 -726 -1492 -1692 -2660 -2715 -329 -288 -646 -556 -660 -556
-6 0 -773 380 -1702 845 -1311 656 -1695 843 -1708 836 -9 -5 -37 -30 -61 -55
l-44 -45 1930 -964 1929 -965 80 66 c1329 1109 2586 2351 3208 3172 475 626
782 1270 910 1910 41 201 65 418 76 685 5 138 21 439 35 670 14 231 25 428 25
438 0 16 519 17 10755 17 7686 0 10755 3 10755 11 0 6 11 95 25 197 54 398 96
875 145 1642 169 2676 223 4048 224 5705 1 931 -2 1021 -45 1505 -36 406 -99
844 -175 1215 -175 857 -499 1564 -990 2161 -91 112 -341 374 -355 374 -5 0
17 -33 49 -72z"/>
<path d="M54295 41353 c-586 -32 -1109 -185 -1500 -438 -411 -265 -638 -741
-675 -1415 -6 -96 -46 -796 -91 -1555 -87 -1491 -86 -1478 -43 -1705 52 -276
176 -489 356 -611 86 -59 94 -60 70 -13 -28 56 -68 188 -87 288 -38 205 -38
222 46 1676 43 751 83 1448 89 1550 12 219 30 350 71 520 80 326 215 577 413
768 243 234 661 427 1136 522 351 71 583 83 1455 77 720 -5 795 -9 1022 -58
134 -28 298 -84 400 -134 81 -41 83 -42 67 -16 -43 68 -134 167 -201 221 -229
184 -543 287 -973 320 -120 9 -1400 11 -1555 3z"/>
<path d="M49220 28283 c0 -48 -29 -1833 -30 -1840 0 -2 -675 -3 -1500 -3
-1192 0 -1501 -3 -1505 -12 -2 -7 -69 -1977 -149 -4378 -81 -2401 -149 -4422
-153 -4492 l-6 -128 -1038 0 -1039 0 0 -132 c0 -73 -3 -150 -6 -170 l-7 -38
1216 0 1215 0 6 93 c3 50 71 2068 152 4482 80 2415 148 4400 150 4413 l4 22
1499 0 1499 0 6 123 c3 67 10 509 16 982 5 473 13 922 16 998 l5 137 -175 0
-176 0 0 -57z"/>
<path d="M52876 28318 c17 -56 2375 -6522 2379 -6526 7 -7 5 -11 67 126 l55
122 -483 1328 c-266 730 -782 2146 -1146 3147 l-663 1820 -109 3 -108 3 8 -23z"/>
<path d="M60836 28198 c-9 -201 -336 -10607 -336 -10695 l0 -73 -1050 0 -1050
0 0 -102 c0 -57 -3 -133 -7 -170 l-6 -68 1227 0 1226 0 0 47 c0 25 79 2543
175 5595 96 3052 175 5562 175 5578 l0 30 -174 0 -174 0 -6 -142z"/>
<path d="M41117 26318 c-4 -66 -7 -143 -7 -170 l0 -48 1313 0 1314 0 6 128 c4
70 7 146 7 170 l0 42 -1313 0 -1314 0 -6 -122z"/>
<path d="M52302 20573 c-73 -1699 -133 -3100 -133 -3115 l1 -28 -1000 0 -1000
0 0 -132 c0 -73 -3 -150 -6 -170 l-7 -38 1177 0 c1113 0 1176 1 1176 18 0 9
54 1291 121 2848 l122 2831 -154 436 c-85 240 -156 437 -159 437 -3 0 -65
-1389 -138 -3087z"/>
<path d="M57180 21275 l-1074 -2385 -868 0 c-688 0 -868 -3 -867 -12 0 -7 26
-85 58 -173 l58 -160 979 -2 979 -3 889 1972 888 1973 19 525 c11 289 18 553
17 587 l-3 62 -1075 -2384z"/>
</g>
</svg>
